{"asset":{"version":"2.0","generator":"Blockbench 4.8.3 glTF exporter"},"scenes":[{"nodes":[3],"name":"blockbench_export"}],"scene":0,"nodes":[{"translation":[0,-0.875,0],"name":"base","mesh":0},{"translation":[0,0,0.03125],"name":"handle","mesh":1},{"translation":[0,0.875,0],"name":"Building","children":[0,1]},{"children":[2]}],"bufferViews":[{"buffer":0,"byteOffset":0,"byteLength":33408,"target":34962,"byteStride":12},{"buffer":0,"byteOffset":33408,"byteLength":33408,"target":34962,"byteStride":12},{"buffer":0,"byteOffset":66816,"byteLength":22272,"target":34962,"byteStride":8},{"buffer":0,"byteOffset":89088,"byteLength":8352,"target":34963},{"buffer":0,"byteOffset":97440,"byteLength":672,"target":34962,"byteStride":12},{"buffer":0,"byteOffset":98112,"byteLength":672,"target":34962,"byteStride":12},{"buffer":0,"byteOffset":98784,"byteLength":448,"target":34962,"byteStride":8},{"buffer":0,"byteOffset":99232,"byteLength":168,"target":34963}],"buffers":[{"byteLength":99400,"uri":"data:application/octet-stream;base64,"}],"accessors":[{"bufferView":0,"componentType":5126,"count":2784,"max":[2,3,2.15625],"min":[-2,0,-2],"type":"VEC3"},{"bufferView":1,"componentType":5126,"count":2784,"max":[1,1,1],"min":[-1,-1,-1],"type":"VEC3"},{"bufferView":2,"componentType":5126,"count":2784,"max":[0.4384765625,0.447265625],"min":[0,0],"type":"VEC2"},{"bufferView":3,"componentType":5123,"count":4176,"max":[2783],"min":[0],"type":"SCALAR"},{"bufferView":4,"componentType":5126,"count":56,"max":[0.28125,-0.15625,2.09375],"min":[0.09375,-0.21875,1.96875],"type":"VEC3"},{"bufferView":5,"componentType":5126,"count":56,"max":[1,1,1],"min":[-1,-1,-1],"type":"VEC3"},{"bufferView":6,"componentType":5126,"count":56,"max":[0.158203125,0.23046875],"min":[0.013671875,0.123046875],"type":"VEC2"},{"bufferView":7,"componentType":5123,"count":84,"max":[55],"min":[0],"type":"SCALAR"}],"materials":[{"pbrMetallicRoughness":{"metallicFactor":0,"roughnessFactor":1,"baseColorTexture":{"index":0}},"alphaMode":"MASK","alphaCutoff":0.05,"doubleSided":true}],"textures":[{"sampler":0,"source":0,"name":"Building.png"}],"samplers":[{"magFilter":9728,"minFilter":9728,"wrapS":33071,"wrapT":33071}],"images":[{"mimeType":"image/png","uri":"data:image/png;base64,"}],"meshes":[{"primitives":[{"mode":4,"attributes":{"POSITION":0,"NORMAL":1,"TEXCOORD_0":2},"indices":3,"material":0}]},{"primitives":[{"mode":4,"attributes":{"POSITION":4,"NORMAL":5,"TEXCOORD_0":6},"indices":7,"material":0}]}]}