{"asset":{"version":"2.0","generator":"Blockbench 4.8.3 glTF exporter"},"scenes":[{"nodes":[1],"name":"blockbench_export"}],"scene":0,"nodes":[{"name":"Tree","mesh":0},{"children":[0]}],"bufferViews":[{"buffer":0,"byteOffset":0,"byteLength":1560,"target":34962,"byteStride":12},{"buffer":0,"byteOffset":1560,"byteLength":1560,"target":34962,"byteStride":12},{"buffer":0,"byteOffset":3120,"byteLength":1040,"target":34962,"byteStride":8},{"buffer":0,"byteOffset":4160,"byteLength":360,"target":34963}],"buffers":[{"byteLength":4520,"uri":"data:application/octet-stream;base64,"}],"accessors":[{"bufferView":0,"componentType":5126,"count":130,"max":[0.7214882969856262,4.0625,0.7806490659713745],"min":[-0.6958022713661194,-0.4375,-0.6011025905609131],"type":"VEC3"},{"bufferView":1,"componentType":5126,"count":130,"max":[0.9625939130783081,1,0.9988974928855896],"min":[-0.962723433971405,-1,-0.9717953205108643],"type":"VEC3"},{"bufferView":2,"componentType":5126,"count":130,"max":[0.7265625,0.8643226623535156],"min":[0,0],"type":"VEC2"},{"bufferView":3,"componentType":5123,"count":180,"max":[129],"min":[0],"type":"SCALAR"}],"materials":[{"pbrMetallicRoughness":{"metallicFactor":0,"roughnessFactor":1,"baseColorTexture":{"index":0}},"alphaMode":"MASK","alphaCutoff":0.05,"doubleSided":true}],"textures":[{"sampler":0,"source":0,"name":"TreeLOD1.png"}],"samplers":[{"magFilter":9728,"minFilter":9728,"wrapS":33071,"wrapT":33071}],"images":[{"mimeType":"image/png","uri":"data:image/png;base64,"}],"meshes":[{"primitives":[{"mode":4,"attributes":{"POSITION":0,"NORMAL":1,"TEXCOORD_0":2},"indices":3,"material":0}]}]}