{"asset":{"version":"2.0","generator":"Blockbench 4.8.3 glTF exporter"},"scenes":[{"nodes":[1],"name":"blockbench_export"}],"scene":0,"nodes":[{"name":"Tree","mesh":0},{"children":[0]}],"bufferViews":[{"buffer":0,"byteOffset":0,"byteLength":10272,"target":34962,"byteStride":12},{"buffer":0,"byteOffset":10272,"byteLength":10272,"target":34962,"byteStride":12},{"buffer":0,"byteOffset":20544,"byteLength":6848,"target":34962,"byteStride":8},{"buffer":0,"byteOffset":27392,"byteLength":2400,"target":34963}],"buffers":[{"byteLength":29792,"uri":"data:application/octet-stream;base64,"}],"accessors":[{"bufferView":0,"componentType":5126,"count":856,"max":[0.9849947094917297,4.3125,1.1576564311981201],"min":[-0.9872483611106873,-0.4375,-1.4144206047058105],"type":"VEC3"},{"bufferView":1,"componentType":5126,"count":856,"max":[0.9891883134841919,1,0.9999111294746399],"min":[-0.9735254645347595,-1,-0.9315208196640015],"type":"VEC3"},{"bufferView":2,"componentType":5126,"count":856,"max":[0.6648717522621155,0.75],"min":[0,0],"type":"VEC2"},{"bufferView":3,"componentType":5123,"count":1200,"max":[855],"min":[0],"type":"SCALAR"}],"materials":[{"pbrMetallicRoughness":{"metallicFactor":0,"roughnessFactor":1,"baseColorTexture":{"index":0}},"alphaMode":"MASK","alphaCutoff":0.05,"doubleSided":true}],"textures":[{"sampler":0,"source":0,"name":"Tree.png"}],"samplers":[{"magFilter":9728,"minFilter":9728,"wrapS":33071,"wrapT":33071}],"images":[{"mimeType":"image/png","uri":"data:image/png;base64,"}],"meshes":[{"primitives":[{"mode":4,"attributes":{"POSITION":0,"NORMAL":1,"TEXCOORD_0":2},"indices":3,"material":0}]}]}